<?xml version="1.0" encoding="UTF-8" standalone="no"?>
<svg
   xmlns:dc="http://purl.org/dc/elements/1.1/"
   xmlns:cc="http://creativecommons.org/ns#"
   xmlns:rdf="http://www.w3.org/1999/02/22-rdf-syntax-ns#"
   xmlns:svg="http://www.w3.org/2000/svg"
   xmlns="http://www.w3.org/2000/svg"
   xmlns:sodipodi="http://sodipodi.sourceforge.net/DTD/sodipodi-0.dtd"
   xmlns:inkscape="http://www.inkscape.org/namespaces/inkscape"
   inkscape:version="1.0 (4035a4f, 2020-05-01)"
   style="enable-background:new 0 0 400 400;"
   sodipodi:docname="KYC-icon.svg"
   xml:space="preserve"
   viewBox="0 0 400 400"
   y="0px"
   x="0px"
   id="Layer_1"
   version="1.1"><metadata
   id="metadata120"><rdf:RDF><cc:Work
       rdf:about=""><dc:format>image/svg+xml</dc:format><dc:type
         rdf:resource="http://purl.org/dc/dcmitype/StillImage" /><dc:title></dc:title><cc:license
         rdf:resource="http://creativecommons.org/licenses/by/4.0/" /></cc:Work><cc:License
       rdf:about="http://creativecommons.org/licenses/by/4.0/"><cc:permits
         rdf:resource="http://creativecommons.org/ns#Reproduction" /><cc:permits
         rdf:resource="http://creativecommons.org/ns#Distribution" /><cc:requires
         rdf:resource="http://creativecommons.org/ns#Notice" /><cc:requires
         rdf:resource="http://creativecommons.org/ns#Attribution" /><cc:permits
         rdf:resource="http://creativecommons.org/ns#DerivativeWorks" /></cc:License></rdf:RDF></metadata><defs
   id="defs118" /><sodipodi:namedview
   inkscape:current-layer="Layer_1"
   inkscape:window-maximized="0"
   inkscape:window-y="194"
   inkscape:window-x="575"
   inkscape:cy="157.64716"
   inkscape:cx="216.33408"
   inkscape:zoom="0.7430633"
   scale-x="1"
   showgrid="false"
   id="namedview116"
   inkscape:window-height="788"
   inkscape:window-width="1047"
   inkscape:pageshadow="2"
   inkscape:pageopacity="0"
   guidetolerance="10"
   gridtolerance="10"
   objecttolerance="10"
/>
<style
   id="style66"
   type="text/css">
	.line{fill:none;stroke:#DDDDDD;stroke-width:5;stroke-linecap:round;stroke-linejoin:round;stroke-miterlimit:10;}
	.box{fill:none;stroke:#DDDDDD;stroke-width:5;stroke-linecap:round;stroke-linejoin:round;stroke-miterlimit:10;}
	.headcomputer{fill:#FFFFFF;}
	.body{fill:#A4D9E9;}
	.head{fill:#E3E3E3;}
	.arm{fill:#7DCCE1;}
	.computer{fill:#E4F3F9;}
	.star{fill:none;stroke:#C6C6C5;stroke-width:5;stroke-linecap:round;stroke-linejoin:round;stroke-miterlimit:10;}
	.valid{fill:none;stroke:#5bd11f;stroke-width:5;stroke-linecap:round;stroke-linejoin:round;stroke-miterlimit:10;}

</style>
<g
   id="computer_human_decision">
	<polyline
   id="polyline68"
   points="244.9,312.3 244.9,349.7 155.1,349.7 155.1,267.4 222.5,267.4  "
   class="valid" />
	<polyline
   id="polyline70"
   points="177.5,304.8 200,327.2 252.4,267.4  "
   class="valid" />
	<rect
   id="rect72"
   height="82.3"
   width="89.8"
   class="box"
   y="267.4"
   x="282.3" />
	<polyline
   id="polyline74"
   points="117.7,312.3 117.7,349.7 27.8,349.7 27.8,267.4 95.2,267.4  "
   class="valid" />
	<polyline
   id="polyline76"
   points="50.3,304.8 72.8,327.2 125.1,267.4  "
   class="valid" />
	<path
   id="path78"
   d="M110.2,125.1c-17.7,0-29.9-14.4-29.9-32.1V82.4c0-17.7,12.3-32.1,29.9-32.1c17.7,0,29.9,14.4,29.9,32.1v10.7   C140.1,110.8,127.9,125.1,110.2,125.1z"
   class="headcomputer" />
	<path
   id="path80"
   d="M199.9,207.5h-44.9l-52.3-59.9h-15c-16.5,0-27.4,11.7-29.9,29.9c-2.6,18.2-7.5,59.9-7.5,59.9h82.3   c0,0,29.7,0,44.8,0C203.2,237.4,199.9,207.5,199.9,207.5z"
   class="body" />
	<path
   id="path82"
   d="M192.5,140.1l-35.2,52.8l2.8,3.2h39.8c5.8,0,10.6,4.3,11.3,10.1c0.1,0.8,0.4,4.2,0.1,8.7h33.7l44.9-74.9H192.5   z"
   class="headcomputer" />
	<path
   id="path84"
   d="M125.3,54.3c3.1,5.1,4.9,11.3,4.9,18v10.7c0,17.7-12.3,32.1-29.9,32.1c-5.7,0-10.8-1.5-15.1-4   c5.2,8.5,14.1,14,25.1,14c17.7,0,29.9-14.4,29.9-32.1V82.4C140.1,70.3,134.4,59.8,125.3,54.3z"
   class="head" />
	<g
   id="g88">
		<path
   id="path86"
   d="M199.9,207.5h-10.4c-1.4,8.7-6.3,19.9-22.1,19.9c-15,0-44.8,0-44.8,0l10,10c0,0,29.7,0,44.8,0    C203.2,237.4,199.9,207.5,199.9,207.5z"
   class="arm" />
	</g>
	<g
   id="g92">
		<path
   id="path90"
   d="M273.8,140.1L234.9,205h-24c0.1,0.4,0.2,0.8,0.2,1.3c0.1,0.8,0.4,4.2,0.1,8.7h33.7l44.9-74.9H273.8z"
   class="computer" />
	</g>
	<path
   id="path94"
   d="M110.2,125.1c-17.7,0-29.9-14.4-29.9-32.1V82.4c0-17.7,12.3-32.1,29.9-32.1c17.7,0,29.9,14.4,29.9,32.1v10.7   C140.1,110.8,127.9,125.1,110.2,125.1z"
   class="line" />
	<path
   id="path96"
   d="M50.3,237.4c0,0,4.9-41.6,7.5-59.9c2.6-18.2,13.5-29.9,29.9-29.9h15l52.3,59.9h44.9c0,0,3.3,29.9-22.5,29.9   c-15,0-44.8,0-44.8,0l-37.4-44.9"
   class="line" />
	<polyline
   id="polyline98"
   points="162.6,185 192.5,140.1 289.8,140.1 244.9,215 215,215  "
   class="line" />
	<line
   id="line100"
   y2="237.4"
   x2="357.2"
   y1="237.4"
   x1="102.7"
   class="line" />
	<g
   id="g106">
		<line
   id="line102"
   y2="210.7"
   x2="327.2"
   y1="174.3"
   x1="327.2"
   class="star" />
		<line
   id="line104"
   y2="192.5"
   x2="309.1"
   y1="192.5"
   x1="345.4"
   class="star" />
	</g>
	<g
   id="g112">
		<line
   id="line108"
   y2="105.9"
   x2="226.2"
   y1="69.6"
   x1="226.2"
   class="star" />
		<line
   id="line110"
   y2="87.7"
   x2="208"
   y1="87.7"
   x1="244.4"
   class="star" />
	</g>
</g>
</svg>
